<?xml version="1.0" encoding="UTF-8" standalone="no"?><svg xmlns="http://www.w3.org/2000/svg" xmlns:xlink="http://www.w3.org/1999/xlink" clip-rule="evenodd" stroke-miterlimit="4.00" viewBox="0 0 1024 768"><desc>SVG generated by Keynote</desc><defs></defs><g transform="matrix(1.00, 0.00, -0.00, -1.00, 0.0, 768.0)"><g><clipPath id="clip-154"><path d="M 0.0 768.0 L 1024.0 768.0 L 1024.0 0.0 L 0.0 0.0 Z M 0.0 768.0 "></path></clipPath><g clip-path="url(#clip-154)"><image xlink:href="../../293415CD-D1BA-41BB-8703-BAEDA9FFCE27/assets/D3CB8578D364082F6943B53F933CCC32.jpeg" width="1024.00" height="768.00" transform="matrix(1.00, 0.00, -0.00, -1.00, 0.0, 768.0)"></image></g></g><text xml:space="preserve" font-family="GillSans-Light" font-size="150.0" fill="#525252" transform="matrix(1.00, 0.00, -0.00, -1.00, 370.0, 391.0)">P</text><text xml:space="preserve" font-family="GillSans-Light" font-size="150.0" fill="#525252" transform="matrix(1.00, 0.00, -0.00, -1.00, 446.4, 391.0)">C</text><text xml:space="preserve" font-family="GillSans-Light" font-size="150.0" fill="#525252" transform="matrix(1.00, 0.00, -0.00, -1.00, 554.7, 391.0)">A</text><text xml:space="preserve" font-family="GillSans-Light" font-size="38.0" fill="#EA3C43" transform="matrix(1.00, 0.00, -0.00, -1.00, 298.0, 297.0)">p</text><text xml:space="preserve" font-family="GillSans-Light" font-size="38.0" fill="#EA3C43" transform="matrix(1.00, 0.00, -0.00, -1.00, 317.4, 297.0)">r</text><text xml:space="preserve" font-family="GillSans-Light" font-size="38.0" fill="#EA3C43" transform="matrix(1.00, 0.00, -0.00, -1.00, 331.0, 297.0)">i</text><text xml:space="preserve" font-family="GillSans-Light" font-size="38.0" fill="#EA3C43" transform="matrix(1.00, 0.00, -0.00, -1.00, 338.1, 297.0)">n</text><text xml:space="preserve" font-family="GillSans-Light" font-size="38.0" fill="#EA3C43" transform="matrix(1.00, 0.00, -0.00, -1.00, 356.7, 297.0)">c</text><text xml:space="preserve" font-family="GillSans-Light" font-size="38.0" fill="#EA3C43" transform="matrix(1.00, 0.00, -0.00, -1.00, 372.6, 297.0)">i</text><text xml:space="preserve" font-family="GillSans-Light" font-size="38.0" fill="#EA3C43" transform="matrix(1.00, 0.00, -0.00, -1.00, 379.7, 297.0)">p</text><text xml:space="preserve" font-family="GillSans-Light" font-size="38.0" fill="#EA3C43" transform="matrix(1.00, 0.00, -0.00, -1.00, 399.1, 297.0)">l</text><text xml:space="preserve" font-family="GillSans-Light" font-size="38.0" fill="#EA3C43" transform="matrix(1.00, 0.00, -0.00, -1.00, 406.2, 297.0)">e</text><text xml:space="preserve" font-family="GillSans-Light" font-size="38.0" fill="#EA3C43" transform="matrix(1.00, 0.00, -0.00, -1.00, 424.4, 297.0)"> </text><text xml:space="preserve" font-family="GillSans-Light" font-size="38.0" fill="#EA3C43" transform="matrix(1.00, 0.00, -0.00, -1.00, 435.0, 297.0)">c</text><text xml:space="preserve" font-family="GillSans-Light" font-size="38.0" fill="#EA3C43" transform="matrix(1.00, 0.00, -0.00, -1.00, 450.8, 297.0)">o</text><text xml:space="preserve" font-family="GillSans-Light" font-size="38.0" fill="#EA3C43" transform="matrix(1.00, 0.00, -0.00, -1.00, 471.4, 297.0)">m</text><text xml:space="preserve" font-family="GillSans-Light" font-size="38.0" fill="#EA3C43" transform="matrix(1.00, 0.00, -0.00, -1.00, 500.7, 297.0)">p</text><text xml:space="preserve" font-family="GillSans-Light" font-size="38.0" fill="#EA3C43" transform="matrix(1.00, 0.00, -0.00, -1.00, 520.1, 297.0)">o</text><text xml:space="preserve" font-family="GillSans-Light" font-size="38.0" fill="#EA3C43" transform="matrix(1.00, 0.00, -0.00, -1.00, 540.7, 297.0)">n</text><text xml:space="preserve" font-family="GillSans-Light" font-size="38.0" fill="#EA3C43" transform="matrix(1.00, 0.00, -0.00, -1.00, 559.3, 297.0)">e</text><text xml:space="preserve" font-family="GillSans-Light" font-size="38.0" fill="#EA3C43" transform="matrix(1.00, 0.00, -0.00, -1.00, 577.5, 297.0)">n</text><text xml:space="preserve" font-family="GillSans-Light" font-size="38.0" fill="#EA3C43" transform="matrix(1.00, 0.00, -0.00, -1.00, 596.2, 297.0)">t</text><text xml:space="preserve" font-family="GillSans-Light" font-size="38.0" fill="#EA3C43" transform="matrix(1.00, 0.00, -0.00, -1.00, 607.6, 297.0)"> </text><text xml:space="preserve" font-family="GillSans-Light" font-size="38.0" fill="#EA3C43" transform="matrix(1.00, 0.00, -0.00, -1.00, 618.2, 297.0)">a</text><text xml:space="preserve" font-family="GillSans-Light" font-size="38.0" fill="#EA3C43" transform="matrix(1.00, 0.00, -0.00, -1.00, 634.4, 297.0)">n</text><text xml:space="preserve" font-family="GillSans-Light" font-size="38.0" fill="#EA3C43" transform="matrix(1.00, 0.00, -0.00, -1.00, 653.0, 297.0)">a</text><text xml:space="preserve" font-family="GillSans-Light" font-size="38.0" fill="#EA3C43" transform="matrix(1.00, 0.00, -0.00, -1.00, 669.2, 297.0)">l</text><text xml:space="preserve" font-family="GillSans-Light" font-size="38.0" fill="#EA3C43" transform="matrix(1.00, 0.00, -0.00, -1.00, 676.0, 297.0)">y</text><text xml:space="preserve" font-family="GillSans-Light" font-size="38.0" fill="#EA3C43" transform="matrix(1.00, 0.00, -0.00, -1.00, 691.8, 297.0)">s</text><text xml:space="preserve" font-family="GillSans-Light" font-size="38.0" fill="#EA3C43" transform="matrix(1.00, 0.00, -0.00, -1.00, 705.3, 297.0)">i</text><text xml:space="preserve" font-family="GillSans-Light" font-size="38.0" fill="#EA3C43" transform="matrix(1.00, 0.00, -0.00, -1.00, 712.4, 297.0)">s</text></g></svg>