<?xml version="1.0" encoding="UTF-8" standalone="no"?><svg xmlns="http://www.w3.org/2000/svg" xmlns:xlink="http://www.w3.org/1999/xlink" clip-rule="evenodd" stroke-miterlimit="4.00" viewBox="0 0 1024 768"><desc>SVG generated by Keynote</desc><defs></defs><g transform="matrix(1.00, 0.00, -0.00, -1.00, 0.0, 768.0)"><g><clipPath id="clip-22"><path d="M 0.0 768.0 L 1024.0 768.0 L 1024.0 0.0 L 0.0 0.0 Z M 0.0 768.0 "></path></clipPath><g clip-path="url(#clip-22)"><image xlink:href="../../293415CD-D1BA-41BB-8703-BAEDA9FFCE27/assets/D3CB8578D364082F6943B53F933CCC32.jpeg" width="1024.00" height="768.00" transform="matrix(1.00, 0.00, -0.00, -1.00, 0.0, 768.0)"></image></g></g><g><clipPath id="clip-23"><path d="M -54.0 768.0 L 1078.0 768.0 L 1078.0 0.0 L -54.0 0.0 Z M -53.9 768.0 "></path></clipPath><g clip-path="url(#clip-23)"><image xlink:href="../../63357E22-B26E-4F9E-9E1B-6A2B1578DDB9/assets/449B15D01BC543A03D274D9E67681FB3.png" width="797.00" height="540.00" transform="matrix(1.42, 0.00, -0.00, -1.42, -54.0, 768.0)"></image></g></g><text xml:space="preserve" font-family="GillSans-Light" font-size="36.0" fill="#525252" transform="matrix(1.00, 0.00, -0.00, -1.00, 526.0, 160.0)">D</text><text xml:space="preserve" font-family="GillSans-Light" font-size="36.0" fill="#525252" transform="matrix(1.00, 0.00, -0.00, -1.00, 552.7, 160.0)">e</text><text xml:space="preserve" font-family="GillSans-Light" font-size="36.0" fill="#525252" transform="matrix(1.00, 0.00, -0.00, -1.00, 569.9, 160.0)">n</text><text xml:space="preserve" font-family="GillSans-Light" font-size="36.0" fill="#525252" transform="matrix(1.00, 0.00, -0.00, -1.00, 587.6, 160.0)">d</text><text xml:space="preserve" font-family="GillSans-Light" font-size="36.0" fill="#525252" transform="matrix(1.00, 0.00, -0.00, -1.00, 605.9, 160.0)">r</text><text xml:space="preserve" font-family="GillSans-Light" font-size="36.0" fill="#525252" transform="matrix(1.00, 0.00, -0.00, -1.00, 618.8, 160.0)">i</text><text xml:space="preserve" font-family="GillSans-Light" font-size="36.0" fill="#525252" transform="matrix(1.00, 0.00, -0.00, -1.00, 625.6, 160.0)">t</text><text xml:space="preserve" font-family="GillSans-Light" font-size="36.0" fill="#525252" transform="matrix(1.00, 0.00, -0.00, -1.00, 636.4, 160.0)">e</text><text xml:space="preserve" font-family="GillSans-Light" font-size="36.0" fill="#525252" transform="matrix(1.00, 0.00, -0.00, -1.00, 697.0, 559.0)">A</text><text xml:space="preserve" font-family="GillSans-Light" font-size="36.0" fill="#525252" transform="matrix(1.00, 0.00, -0.00, -1.00, 721.0, 559.0)">x</text><text xml:space="preserve" font-family="GillSans-Light" font-size="36.0" fill="#525252" transform="matrix(1.00, 0.00, -0.00, -1.00, 738.3, 559.0)">o</text><text xml:space="preserve" font-family="GillSans-Light" font-size="36.0" fill="#525252" transform="matrix(1.00, 0.00, -0.00, -1.00, 757.8, 559.0)">n</text><text xml:space="preserve" font-family="GillSans-Light" font-size="36.0" fill="#525252" transform="matrix(1.00, 0.00, -0.00, -1.00, 254.0, 640.0)">C</text><text xml:space="preserve" font-family="GillSans-Light" font-size="36.0" fill="#525252" transform="matrix(1.00, 0.00, -0.00, -1.00, 278.4, 640.0)">e</text><text xml:space="preserve" font-family="GillSans-Light" font-size="36.0" fill="#525252" transform="matrix(1.00, 0.00, -0.00, -1.00, 295.6, 640.0)">l</text><text xml:space="preserve" font-family="GillSans-Light" font-size="36.0" fill="#525252" transform="matrix(1.00, 0.00, -0.00, -1.00, 302.4, 640.0)">l</text><text xml:space="preserve" font-family="GillSans-Light" font-size="36.0" fill="#525252" transform="matrix(1.00, 0.00, -0.00, -1.00, 309.1, 640.0)"> </text><text xml:space="preserve" font-family="GillSans-Light" font-size="36.0" fill="#525252" transform="matrix(1.00, 0.00, -0.00, -1.00, 319.1, 640.0)">B</text><text xml:space="preserve" font-family="GillSans-Light" font-size="36.0" fill="#525252" transform="matrix(1.00, 0.00, -0.00, -1.00, 338.2, 640.0)">o</text><text xml:space="preserve" font-family="GillSans-Light" font-size="36.0" fill="#525252" transform="matrix(1.00, 0.00, -0.00, -1.00, 357.7, 640.0)">d</text><text xml:space="preserve" font-family="GillSans-Light" font-size="36.0" fill="#525252" transform="matrix(1.00, 0.00, -0.00, -1.00, 376.1, 640.0)">y</text><g><clipPath id="clip-24"><path d="M 48.0 722.0 L 219.0 722.0 L 219.0 582.0 L 48.0 582.0 Z M 47.7 721.9 "></path></clipPath><g clip-path="url(#clip-24)"><g><clipPath id="clip-25"><path d="M 45.7 580.1 L 221.4 580.1 L 221.4 723.9 L 45.7 723.9 Z M 45.7 580.1 "></path></clipPath><g clip-path="url(#clip-25)"><image xlink:href="../../63357E22-B26E-4F9E-9E1B-6A2B1578DDB9/assets/449B15D01BC543A03D274D9E67681FB3.png" width="797.00" height="540.00" transform="matrix(2.34, 0.00, -0.00, -2.34, -469.0, 1354.0)"></image></g></g></g></g><g><clipPath id="clip-26"><path d="M 45.7 580.1 L 221.4 580.1 L 221.4 723.9 L 45.7 723.9 Z M 45.7 580.1 "></path></clipPath><g clip-path="url(#clip-26)"><path d="M 0.0 0.0 L 0.0 139.7 L 171.7 139.7 L 171.7 0.0 L 0.0 0.0 Z M 0.0 0.0 " fill="none" stroke="#595E5D" stroke-width="4.00" transform="matrix(1.00, 0.00, 0.00, -1.00, 47.7, 721.9)"></path></g></g><g><clipPath id="clip-27"><path d="M 281.8 305.2 L 45.3 579.6 L 49.9 583.6 L 286.3 309.1 Z M 281.8 305.2 "></path></clipPath><g clip-path="url(#clip-27)"><path d="M 0.0 0.0 L 360.2 0.0 " fill="none" stroke="#595E5D" stroke-width="4.00" transform="matrix(-0.65, 0.76, 0.76, 0.65, 283.4, 307.9)"></path></g></g><g><clipPath id="clip-28"><path d="M 350.2 343.9 L 216.0 580.2 L 221.2 583.2 L 355.4 346.9 Z M 350.2 343.9 "></path></clipPath><g clip-path="url(#clip-28)"><path d="M 0.0 0.0 L 269.7 0.0 " fill="none" stroke="#595E5D" stroke-width="4.00" transform="matrix(-0.49, 0.87, 0.87, 0.49, 352.3, 346.3)"></path></g></g><text xml:space="preserve" font-family="GillSans-Light" font-size="15.0" fill="#525252" transform="matrix(1.00, 0.00, -0.00, -1.00, 676.0, 11.0)">h</text><text xml:space="preserve" font-family="GillSans-Light" font-size="15.0" fill="#525252" transform="matrix(1.00, 0.00, -0.00, -1.00, 683.4, 11.0)">t</text><text xml:space="preserve" font-family="GillSans-Light" font-size="15.0" fill="#525252" transform="matrix(1.00, 0.00, -0.00, -1.00, 687.9, 11.0)">t</text><text xml:space="preserve" font-family="GillSans-Light" font-size="15.0" fill="#525252" transform="matrix(1.00, 0.00, -0.00, -1.00, 692.4, 11.0)">p</text><text xml:space="preserve" font-family="GillSans-Light" font-size="15.0" fill="#525252" transform="matrix(1.00, 0.00, -0.00, -1.00, 700.0, 11.0)">:</text><text xml:space="preserve" font-family="GillSans-Light" font-size="15.0" fill="#525252" transform="matrix(1.00, 0.00, -0.00, -1.00, 702.7, 11.0)">/</text><text xml:space="preserve" font-family="GillSans-Light" font-size="15.0" fill="#525252" transform="matrix(1.00, 0.00, -0.00, -1.00, 706.9, 11.0)">/</text><text xml:space="preserve" font-family="GillSans-Light" font-size="15.0" fill="#525252" transform="matrix(1.00, 0.00, -0.00, -1.00, 711.1, 11.0)">c</text><text xml:space="preserve" font-family="GillSans-Light" font-size="15.0" fill="#525252" transform="matrix(1.00, 0.00, -0.00, -1.00, 717.4, 11.0)">i</text><text xml:space="preserve" font-family="GillSans-Light" font-size="15.0" fill="#525252" transform="matrix(1.00, 0.00, -0.00, -1.00, 720.2, 11.0)">n</text><text xml:space="preserve" font-family="GillSans-Light" font-size="15.0" fill="#525252" transform="matrix(1.00, 0.00, -0.00, -1.00, 727.5, 11.0)">p</text><text xml:space="preserve" font-family="GillSans-Light" font-size="15.0" fill="#525252" transform="matrix(1.00, 0.00, -0.00, -1.00, 735.2, 11.0)">l</text><text xml:space="preserve" font-family="GillSans-Light" font-size="15.0" fill="#525252" transform="matrix(1.00, 0.00, -0.00, -1.00, 738.0, 11.0)">a</text><text xml:space="preserve" font-family="GillSans-Light" font-size="15.0" fill="#525252" transform="matrix(1.00, 0.00, -0.00, -1.00, 744.4, 11.0)">.</text><text xml:space="preserve" font-family="GillSans-Light" font-size="15.0" fill="#525252" transform="matrix(1.00, 0.00, -0.00, -1.00, 747.1, 11.0)">o</text><text xml:space="preserve" font-family="GillSans-Light" font-size="15.0" fill="#525252" transform="matrix(1.00, 0.00, -0.00, -1.00, 755.2, 11.0)">r</text><text xml:space="preserve" font-family="GillSans-Light" font-size="15.0" fill="#525252" transform="matrix(1.00, 0.00, -0.00, -1.00, 760.6, 11.0)">g</text><text xml:space="preserve" font-family="GillSans-Light" font-size="15.0" fill="#525252" transform="matrix(1.00, 0.00, -0.00, -1.00, 767.0, 11.0)">/</text><text xml:space="preserve" font-family="GillSans-Light" font-size="15.0" fill="#525252" transform="matrix(1.00, 0.00, -0.00, -1.00, 771.2, 11.0)">w</text><text xml:space="preserve" font-family="GillSans-Light" font-size="15.0" fill="#525252" transform="matrix(1.00, 0.00, -0.00, -1.00, 781.8, 11.0)">p</text><text xml:space="preserve" font-family="GillSans-Light" font-size="15.0" fill="#525252" transform="matrix(1.00, 0.00, -0.00, -1.00, 789.4, 11.0)">-</text><text xml:space="preserve" font-family="GillSans-Light" font-size="15.0" fill="#525252" transform="matrix(1.00, 0.00, -0.00, -1.00, 794.1, 11.0)">c</text><text xml:space="preserve" font-family="GillSans-Light" font-size="15.0" fill="#525252" transform="matrix(1.00, 0.00, -0.00, -1.00, 800.4, 11.0)">o</text><text xml:space="preserve" font-family="GillSans-Light" font-size="15.0" fill="#525252" transform="matrix(1.00, 0.00, -0.00, -1.00, 808.5, 11.0)">n</text><text xml:space="preserve" font-family="GillSans-Light" font-size="15.0" fill="#525252" transform="matrix(1.00, 0.00, -0.00, -1.00, 815.9, 11.0)">t</text><text xml:space="preserve" font-family="GillSans-Light" font-size="15.0" fill="#525252" transform="matrix(1.00, 0.00, -0.00, -1.00, 820.4, 11.0)">e</text><text xml:space="preserve" font-family="GillSans-Light" font-size="15.0" fill="#525252" transform="matrix(1.00, 0.00, -0.00, -1.00, 827.6, 11.0)">n</text><text xml:space="preserve" font-family="GillSans-Light" font-size="15.0" fill="#525252" transform="matrix(1.00, 0.00, -0.00, -1.00, 834.9, 11.0)">t</text><text xml:space="preserve" font-family="GillSans-Light" font-size="15.0" fill="#525252" transform="matrix(1.00, 0.00, -0.00, -1.00, 839.4, 11.0)">/</text><text xml:space="preserve" font-family="GillSans-Light" font-size="15.0" fill="#525252" transform="matrix(1.00, 0.00, -0.00, -1.00, 843.7, 11.0)">u</text><text xml:space="preserve" font-family="GillSans-Light" font-size="15.0" fill="#525252" transform="matrix(1.00, 0.00, -0.00, -1.00, 851.0, 11.0)">p</text><text xml:space="preserve" font-family="GillSans-Light" font-size="15.0" fill="#525252" transform="matrix(1.00, 0.00, -0.00, -1.00, 858.7, 11.0)">l</text><text xml:space="preserve" font-family="GillSans-Light" font-size="15.0" fill="#525252" transform="matrix(1.00, 0.00, -0.00, -1.00, 861.5, 11.0)">o</text><text xml:space="preserve" font-family="GillSans-Light" font-size="15.0" fill="#525252" transform="matrix(1.00, 0.00, -0.00, -1.00, 869.6, 11.0)">a</text><text xml:space="preserve" font-family="GillSans-Light" font-size="15.0" fill="#525252" transform="matrix(1.00, 0.00, -0.00, -1.00, 876.0, 11.0)">d</text><text xml:space="preserve" font-family="GillSans-Light" font-size="15.0" fill="#525252" transform="matrix(1.00, 0.00, -0.00, -1.00, 883.6, 11.0)">s</text><text xml:space="preserve" font-family="GillSans-Light" font-size="15.0" fill="#525252" transform="matrix(1.00, 0.00, -0.00, -1.00, 889.0, 11.0)">/</text><text xml:space="preserve" font-family="GillSans-Light" font-size="15.0" fill="#525252" transform="matrix(1.00, 0.00, -0.00, -1.00, 893.2, 11.0)">2</text><text xml:space="preserve" font-family="GillSans-Light" font-size="15.0" fill="#525252" transform="matrix(1.00, 0.00, -0.00, -1.00, 900.7, 11.0)">0</text><text xml:space="preserve" font-family="GillSans-Light" font-size="15.0" fill="#525252" transform="matrix(1.00, 0.00, -0.00, -1.00, 908.2, 11.0)">1</text><text xml:space="preserve" font-family="GillSans-Light" font-size="15.0" fill="#525252" transform="matrix(1.00, 0.00, -0.00, -1.00, 915.7, 11.0)">5</text><text xml:space="preserve" font-family="GillSans-Light" font-size="15.0" fill="#525252" transform="matrix(1.00, 0.00, -0.00, -1.00, 923.2, 11.0)">/</text><text xml:space="preserve" font-family="GillSans-Light" font-size="15.0" fill="#525252" transform="matrix(1.00, 0.00, -0.00, -1.00, 927.4, 11.0)">0</text><text xml:space="preserve" font-family="GillSans-Light" font-size="15.0" fill="#525252" transform="matrix(1.00, 0.00, -0.00, -1.00, 934.9, 11.0)">2</text><text xml:space="preserve" font-family="GillSans-Light" font-size="15.0" fill="#525252" transform="matrix(1.00, 0.00, -0.00, -1.00, 942.4, 11.0)">/</text><text xml:space="preserve" font-family="GillSans-Light" font-size="15.0" fill="#525252" transform="matrix(1.00, 0.00, -0.00, -1.00, 946.6, 11.0)">n</text><text xml:space="preserve" font-family="GillSans-Light" font-size="15.0" fill="#525252" transform="matrix(1.00, 0.00, -0.00, -1.00, 953.9, 11.0)">e</text><text xml:space="preserve" font-family="GillSans-Light" font-size="15.0" fill="#525252" transform="matrix(1.00, 0.00, -0.00, -1.00, 961.1, 11.0)">u</text><text xml:space="preserve" font-family="GillSans-Light" font-size="15.0" fill="#525252" transform="matrix(1.00, 0.00, -0.00, -1.00, 968.5, 11.0)">r</text><text xml:space="preserve" font-family="GillSans-Light" font-size="15.0" fill="#525252" transform="matrix(1.00, 0.00, -0.00, -1.00, 973.5, 11.0)">o</text><text xml:space="preserve" font-family="GillSans-Light" font-size="15.0" fill="#525252" transform="matrix(1.00, 0.00, -0.00, -1.00, 981.6, 11.0)">n</text><text xml:space="preserve" font-family="GillSans-Light" font-size="15.0" fill="#525252" transform="matrix(1.00, 0.00, -0.00, -1.00, 989.0, 11.0)">.</text><text xml:space="preserve" font-family="GillSans-Light" font-size="15.0" fill="#525252" transform="matrix(1.00, 0.00, -0.00, -1.00, 991.6, 11.0)">j</text><text xml:space="preserve" font-family="GillSans-Light" font-size="15.0" fill="#525252" transform="matrix(1.00, 0.00, -0.00, -1.00, 994.4, 11.0)">p</text><text xml:space="preserve" font-family="GillSans-Light" font-size="15.0" fill="#525252" transform="matrix(1.00, 0.00, -0.00, -1.00, 1002.1, 11.0)">g</text><g><clipPath id="clip-29"><path d="M 674.5 8.3 L 1008.1 8.3 L 1008.1 11.1 L 674.5 11.1 Z M 674.5 8.3 "></path></clipPath><g clip-path="url(#clip-29)"><path d="M 4.0 18.6 L 336.5 18.6 " fill="none" stroke="#525252" stroke-width="0.75" stroke-miterlimit="0.00" transform="matrix(1.00, 0.00, 0.00, -1.00, 671.5, 28.3)"></path></g></g></g></svg>