<?xml version="1.0" encoding="UTF-8" standalone="no"?><svg xmlns="http://www.w3.org/2000/svg" xmlns:xlink="http://www.w3.org/1999/xlink" clip-rule="evenodd" stroke-miterlimit="10" viewBox="0 0 299 31"><desc>SVG generated by Keynote</desc><defs></defs><g transform="matrix(1.00, 0.00, -0.00, -1.00, 0.0, 31.0)"><text xml:space="preserve" font-family="GillSans-Light,Gill Sans" font-size="40.0" fill="#525252" transform="matrix(1.00, 0.00, -0.00, -1.00, -0.9, 1.9)">n</text><text xml:space="preserve" font-family="GillSans-Light,Gill Sans" font-size="40.0" fill="#525252" transform="matrix(1.00, 0.00, -0.00, -1.00, 18.7, 1.9)">.</text><text xml:space="preserve" font-family="GillSans-Light,Gill Sans" font-size="40.0" fill="#525252" transform="matrix(1.00, 0.00, -0.00, -1.00, 22.6, 1.9)"> </text><text xml:space="preserve" font-family="GillSans-Light,Gill Sans" font-size="40.0" fill="#525252" transform="matrix(1.00, 0.00, -0.00, -1.00, 33.7, 1.9)">a</text><text xml:space="preserve" font-family="GillSans-Light,Gill Sans" font-size="40.0" fill="#525252" transform="matrix(1.00, 0.00, -0.00, -1.00, 50.8, 1.9)"> </text><text xml:space="preserve" font-family="GillSans-Light,Gill Sans" font-size="40.0" fill="#525252" transform="matrix(1.00, 0.00, -0.00, -1.00, 61.9, 1.9)">d</text><text xml:space="preserve" font-family="GillSans-Light,Gill Sans" font-size="40.0" fill="#525252" transform="matrix(1.00, 0.00, -0.00, -1.00, 82.2, 1.9)">r</text><text xml:space="preserve" font-family="GillSans-Light,Gill Sans" font-size="40.0" fill="#525252" transform="matrix(1.00, 0.00, -0.00, -1.00, 96.6, 1.9)">a</text><text xml:space="preserve" font-family="GillSans-Light,Gill Sans" font-size="40.0" fill="#525252" transform="matrix(1.00, 0.00, -0.00, -1.00, 113.6, 1.9)">m</text><text xml:space="preserve" font-family="GillSans-Light,Gill Sans" font-size="40.0" fill="#525252" transform="matrix(1.00, 0.00, -0.00, -1.00, 144.5, 1.9)">a</text><text xml:space="preserve" font-family="GillSans-Light,Gill Sans" font-size="40.0" fill="#525252" transform="matrix(1.00, 0.00, -0.00, -1.00, 161.5, 1.9)">t</text><text xml:space="preserve" font-family="GillSans-Light,Gill Sans" font-size="40.0" fill="#525252" transform="matrix(1.00, 0.00, -0.00, -1.00, 173.6, 1.9)">i</text><text xml:space="preserve" font-family="GillSans-Light,Gill Sans" font-size="40.0" fill="#525252" transform="matrix(1.00, 0.00, -0.00, -1.00, 181.1, 1.9)">c</text><text xml:space="preserve" font-family="GillSans-Light,Gill Sans" font-size="40.0" fill="#525252" transform="matrix(1.00, 0.00, -0.00, -1.00, 197.8, 1.9)"> </text><text xml:space="preserve" font-family="GillSans-Light,Gill Sans" font-size="40.0" fill="#525252" transform="matrix(1.00, 0.00, -0.00, -1.00, 208.9, 1.9)">s</text><text xml:space="preserve" font-family="GillSans-Light,Gill Sans" font-size="40.0" fill="#525252" transform="matrix(1.00, 0.00, -0.00, -1.00, 223.0, 1.9)">c</text><text xml:space="preserve" font-family="GillSans-Light,Gill Sans" font-size="40.0" fill="#525252" transform="matrix(1.00, 0.00, -0.00, -1.00, 239.7, 1.9)">e</text><text xml:space="preserve" font-family="GillSans-Light,Gill Sans" font-size="40.0" fill="#525252" transform="matrix(1.00, 0.00, -0.00, -1.00, 258.9, 1.9)">n</text><text xml:space="preserve" font-family="GillSans-Light,Gill Sans" font-size="40.0" fill="#525252" transform="matrix(1.00, 0.00, -0.00, -1.00, 278.5, 1.9)">e</text></g></svg>