<?xml version="1.0" encoding="UTF-8" standalone="no"?><svg xmlns="http://www.w3.org/2000/svg" xmlns:xlink="http://www.w3.org/1999/xlink" clip-rule="evenodd" stroke-miterlimit="10" viewBox="0 0 609 38"><desc>SVG generated by Keynote</desc><defs></defs><g transform="matrix(1.00, 0.00, -0.00, -1.00, 0.0, 38.0)"><text xml:space="preserve" font-family="GillSans-Light,Gill Sans" font-size="38.0" fill="#525252" transform="matrix(1.00, 0.00, -0.00, -1.00, 1.8, 10.6)">Y</text><text xml:space="preserve" font-family="GillSans-Light,Gill Sans" font-size="38.0" fill="#525252" transform="matrix(1.00, 0.00, -0.00, -1.00, 18.6, 10.6)">e</text><text xml:space="preserve" font-family="GillSans-Light,Gill Sans" font-size="38.0" fill="#525252" transform="matrix(1.00, 0.00, -0.00, -1.00, 36.8, 10.6)">t</text><text xml:space="preserve" font-family="GillSans-Light,Gill Sans" font-size="38.0" fill="#525252" transform="matrix(1.00, 0.00, -0.00, -1.00, 48.3, 10.6)"> </text><text xml:space="preserve" font-family="GillSans-Light,Gill Sans" font-size="38.0" fill="#525252" transform="matrix(1.00, 0.00, -0.00, -1.00, 58.8, 10.6)">s</text><text xml:space="preserve" font-family="GillSans-Light,Gill Sans" font-size="38.0" fill="#525252" transform="matrix(1.00, 0.00, -0.00, -1.00, 72.3, 10.6)">h</text><text xml:space="preserve" font-family="GillSans-Light,Gill Sans" font-size="38.0" fill="#525252" transform="matrix(1.00, 0.00, -0.00, -1.00, 90.9, 10.6)">e</text><text xml:space="preserve" font-family="GillSans-Light,Gill Sans" font-size="38.0" fill="#525252" transform="matrix(1.00, 0.00, -0.00, -1.00, 110.2, 10.6)">,</text><text xml:space="preserve" font-family="GillSans-Light,Gill Sans" font-size="38.0" fill="#525252" transform="matrix(1.00, 0.00, -0.00, -1.00, 113.9, 10.6)"> </text><text xml:space="preserve" font-family="GillSans-Light,Gill Sans" font-size="38.0" fill="#525252" transform="matrix(1.00, 0.00, -0.00, -1.00, 124.4, 10.6)">b</text><text xml:space="preserve" font-family="GillSans-Light,Gill Sans" font-size="38.0" fill="#525252" transform="matrix(1.00, 0.00, -0.00, -1.00, 143.8, 10.6)">e</text><text xml:space="preserve" font-family="GillSans-Light,Gill Sans" font-size="38.0" fill="#525252" transform="matrix(1.00, 0.00, -0.00, -1.00, 162.0, 10.6)">h</text><text xml:space="preserve" font-family="GillSans-Light,Gill Sans" font-size="38.0" fill="#525252" transform="matrix(1.00, 0.00, -0.00, -1.00, 180.6, 10.6)">o</text><text xml:space="preserve" font-family="GillSans-Light,Gill Sans" font-size="38.0" fill="#525252" transform="matrix(1.00, 0.00, -0.00, -1.00, 201.2, 10.6)">l</text><text xml:space="preserve" font-family="GillSans-Light,Gill Sans" font-size="38.0" fill="#525252" transform="matrix(1.00, 0.00, -0.00, -1.00, 208.4, 10.6)">d</text><text xml:space="preserve" font-family="GillSans-Light,Gill Sans" font-size="38.0" fill="#525252" transform="matrix(1.00, 0.00, -0.00, -1.00, 227.7, 10.6)">i</text><text xml:space="preserve" font-family="GillSans-Light,Gill Sans" font-size="38.0" fill="#525252" transform="matrix(1.00, 0.00, -0.00, -1.00, 234.9, 10.6)">n</text><text xml:space="preserve" font-family="GillSans-Light,Gill Sans" font-size="38.0" fill="#525252" transform="matrix(1.00, 0.00, -0.00, -1.00, 253.5, 10.6)">g</text><text xml:space="preserve" font-family="GillSans-Light,Gill Sans" font-size="38.0" fill="#525252" transform="matrix(1.00, 0.00, -0.00, -1.00, 269.7, 10.6)"> </text><text xml:space="preserve" font-family="GillSans-Light,Gill Sans" font-size="38.0" fill="#525252" transform="matrix(1.00, 0.00, -0.00, -1.00, 280.3, 10.6)">m</text><text xml:space="preserve" font-family="GillSans-Light,Gill Sans" font-size="38.0" fill="#525252" transform="matrix(1.00, 0.00, -0.00, -1.00, 309.6, 10.6)">e</text><text xml:space="preserve" font-family="GillSans-Light,Gill Sans" font-size="38.0" fill="#525252" transform="matrix(1.00, 0.00, -0.00, -1.00, 327.8, 10.6)"> </text><text xml:space="preserve" font-family="GillSans-Light,Gill Sans" font-size="38.0" fill="#525252" transform="matrix(1.00, 0.00, -0.00, -1.00, 338.3, 10.6)">w</text><text xml:space="preserve" font-family="GillSans-Light,Gill Sans" font-size="38.0" fill="#525252" transform="matrix(1.00, 0.00, -0.00, -1.00, 365.2, 10.6)">i</text><text xml:space="preserve" font-family="GillSans-Light,Gill Sans" font-size="38.0" fill="#525252" transform="matrix(1.00, 0.00, -0.00, -1.00, 372.4, 10.6)">t</text><text xml:space="preserve" font-family="GillSans-Light,Gill Sans" font-size="38.0" fill="#525252" transform="matrix(1.00, 0.00, -0.00, -1.00, 383.8, 10.6)">h</text><text xml:space="preserve" font-family="GillSans-Light,Gill Sans" font-size="38.0" fill="#525252" transform="matrix(1.00, 0.00, -0.00, -1.00, 402.5, 10.6)"> </text><text xml:space="preserve" font-family="GillSans-Light,Gill Sans" font-size="38.0" fill="#EA3C43" transform="matrix(1.00, 0.00, -0.00, -1.00, 413.1, 10.6)">c</text><text xml:space="preserve" font-family="GillSans-Light,Gill Sans" font-size="38.0" fill="#EA3C43" transform="matrix(1.00, 0.00, -0.00, -1.00, 428.9, 10.6)">o</text><text xml:space="preserve" font-family="GillSans-Light,Gill Sans" font-size="38.0" fill="#EA3C43" transform="matrix(1.00, 0.00, -0.00, -1.00, 449.5, 10.6)">n</text><text xml:space="preserve" font-family="GillSans-Light,Gill Sans" font-size="38.0" fill="#EA3C43" transform="matrix(1.00, 0.00, -0.00, -1.00, 468.2, 10.6)">s</text><text xml:space="preserve" font-family="GillSans-Light,Gill Sans" font-size="38.0" fill="#EA3C43" transform="matrix(1.00, 0.00, -0.00, -1.00, 481.6, 10.6)">t</text><text xml:space="preserve" font-family="GillSans-Light,Gill Sans" font-size="38.0" fill="#EA3C43" transform="matrix(1.00, 0.00, -0.00, -1.00, 493.1, 10.6)">a</text><text xml:space="preserve" font-family="GillSans-Light,Gill Sans" font-size="38.0" fill="#EA3C43" transform="matrix(1.00, 0.00, -0.00, -1.00, 509.3, 10.6)">n</text><text xml:space="preserve" font-family="GillSans-Light,Gill Sans" font-size="38.0" fill="#EA3C43" transform="matrix(1.00, 0.00, -0.00, -1.00, 527.9, 10.6)">t</text><text xml:space="preserve" font-family="GillSans-Light,Gill Sans" font-size="38.0" fill="#525252" transform="matrix(1.00, 0.00, -0.00, -1.00, 539.4, 10.6)"> </text><text xml:space="preserve" font-family="GillSans-Light,Gill Sans" font-size="38.0" fill="#525252" transform="matrix(1.00, 0.00, -0.00, -1.00, 549.9, 10.6)">e</text><text xml:space="preserve" font-family="GillSans-Light,Gill Sans" font-size="38.0" fill="#525252" transform="matrix(1.00, 0.00, -0.00, -1.00, 568.1, 10.6)">y</text><text xml:space="preserve" font-family="GillSans-Light,Gill Sans" font-size="38.0" fill="#525252" transform="matrix(1.00, 0.00, -0.00, -1.00, 583.2, 10.6)">e</text><text xml:space="preserve" font-family="GillSans-Light,Gill Sans" font-size="38.0" fill="#525252" transform="matrix(1.00, 0.00, -0.00, -1.00, 602.6, 10.6)">,</text><text xml:space="preserve" font-family="GillSans-Light,Gill Sans" font-size="38.0" fill="#525252" transform="matrix(1.00, 0.00, -0.00, -1.00, 606.2, 10.6)"> </text></g></svg>