<?xml version="1.0" encoding="UTF-8" standalone="no"?><svg xmlns="http://www.w3.org/2000/svg" xmlns:xlink="http://www.w3.org/1999/xlink" clip-rule="evenodd" stroke-miterlimit="4.00" viewBox="0 0 630 54"><desc>SVG generated by Keynote</desc><defs></defs><g transform="matrix(1.00, 0.00, -0.00, -1.00, 0.0, 54.0)"><text xml:space="preserve" font-family="GillSans-Light" font-size="72.0" fill="#525252" transform="matrix(1.00, 0.00, -0.00, -1.00, -2.0, 2.0)">“</text><text xml:space="preserve" font-family="GillSans-Light" font-size="72.0" fill="#525252" transform="matrix(1.00, 0.00, -0.00, -1.00, 26.5, 2.0)">I</text><text xml:space="preserve" font-family="GillSans-Light" font-size="72.0" fill="#525252" transform="matrix(1.00, 0.00, -0.00, -1.00, 41.5, 2.0)">T</text><text xml:space="preserve" font-family="GillSans-Light" font-size="72.0" fill="#525252" transform="matrix(1.00, 0.00, -0.00, -1.00, 82.8, 2.0)">’</text><text xml:space="preserve" font-family="GillSans-Light" font-size="72.0" fill="#525252" transform="matrix(1.00, 0.00, -0.00, -1.00, 95.5, 2.0)">S</text><text xml:space="preserve" font-family="GillSans-Light" font-size="72.0" fill="#525252" transform="matrix(1.00, 0.00, -0.00, -1.00, 129.3, 2.0)"> </text><text xml:space="preserve" font-family="GillSans-Light" font-size="72.0" fill="#525252" transform="matrix(1.00, 0.00, -0.00, -1.00, 145.0, 2.0)">A</text><text xml:space="preserve" font-family="GillSans-Light" font-size="72.0" fill="#525252" transform="matrix(1.00, 0.00, -0.00, -1.00, 193.0, 2.0)"> </text><text xml:space="preserve" font-family="GillSans-Light" font-size="72.0" fill="#EA3C43" transform="matrix(1.00, 0.00, -0.00, -1.00, 202.9, 2.0)">T</text><text xml:space="preserve" font-family="GillSans-Light" font-size="72.0" fill="#EA3C43" transform="matrix(1.00, 0.00, -0.00, -1.00, 238.8, 2.0)">O</text><text xml:space="preserve" font-family="GillSans-Light" font-size="72.0" fill="#EA3C43" transform="matrix(1.00, 0.00, -0.00, -1.00, 291.9, 2.0)">Y</text><text xml:space="preserve" font-family="GillSans-Light" font-size="72.0" fill="#EA3C43" transform="matrix(1.00, 0.00, -0.00, -1.00, 333.9, 2.0)"> </text><text xml:space="preserve" font-family="GillSans-Light" font-size="72.0" fill="#EA3C43" transform="matrix(1.00, 0.00, -0.00, -1.00, 353.9, 2.0)">C</text><text xml:space="preserve" font-family="GillSans-Light" font-size="72.0" fill="#EA3C43" transform="matrix(1.00, 0.00, -0.00, -1.00, 405.9, 2.0)">A</text><text xml:space="preserve" font-family="GillSans-Light" font-size="72.0" fill="#EA3C43" transform="matrix(1.00, 0.00, -0.00, -1.00, 453.9, 2.0)">R</text><text xml:space="preserve" font-family="GillSans-Light" font-size="72.0" fill="#EA3C43" transform="matrix(1.00, 0.00, -0.00, -1.00, 495.2, 2.0)">R</text><text xml:space="preserve" font-family="GillSans-Light" font-size="72.0" fill="#EA3C43" transform="matrix(1.00, 0.00, -0.00, -1.00, 536.4, 2.0)">R</text><text xml:space="preserve" font-family="GillSans-Light" font-size="72.0" fill="#525252" transform="matrix(1.00, 0.00, -0.00, -1.00, 577.7, 2.0)">!</text><text xml:space="preserve" font-family="GillSans-Light" font-size="72.0" fill="#525252" transform="matrix(1.00, 0.00, -0.00, -1.00, 590.4, 2.0)">!</text><text xml:space="preserve" font-family="GillSans-Light" font-size="72.0" fill="#525252" transform="matrix(1.00, 0.00, -0.00, -1.00, 603.1, 2.0)">”</text></g></svg>