<?xml version="1.0" encoding="UTF-8" standalone="no"?><svg xmlns="http://www.w3.org/2000/svg" xmlns:xlink="http://www.w3.org/1999/xlink" clip-rule="evenodd" stroke-miterlimit="4.00" viewBox="0 0 538 74"><desc>SVG generated by Keynote</desc><defs></defs><g transform="matrix(1.00, 0.00, -0.00, -1.00, 0.0, 74.0)"><text xml:space="preserve" font-family="GillSans-Light" font-size="100.0" fill="#525252" transform="matrix(1.00, 0.00, -0.00, -1.00, 2.0, 3.0)">T</text><text xml:space="preserve" font-family="GillSans-Light" font-size="100.0" fill="#525252" transform="matrix(1.00, 0.00, -0.00, -1.00, 59.3, 3.0)">H</text><text xml:space="preserve" font-family="GillSans-Light" font-size="100.0" fill="#525252" transform="matrix(1.00, 0.00, -0.00, -1.00, 131.3, 3.0)">A</text><text xml:space="preserve" font-family="GillSans-Light" font-size="100.0" fill="#525252" transform="matrix(1.00, 0.00, -0.00, -1.00, 198.0, 3.0)">N</text><text xml:space="preserve" font-family="GillSans-Light" font-size="100.0" fill="#525252" transform="matrix(1.00, 0.00, -0.00, -1.00, 275.1, 3.0)">K</text><text xml:space="preserve" font-family="GillSans-Light" font-size="100.0" fill="#525252" transform="matrix(1.00, 0.00, -0.00, -1.00, 328.1, 3.0)"> </text><text xml:space="preserve" font-family="GillSans-Light" font-size="100.0" fill="#EA3C43" transform="matrix(1.00, 0.00, -0.00, -1.00, 340.9, 3.0)">Y</text><text xml:space="preserve" font-family="GillSans-Light" font-size="100.0" fill="#EA3C43" transform="matrix(1.00, 0.00, -0.00, -1.00, 390.7, 3.0)">O</text><text xml:space="preserve" font-family="GillSans-Light" font-size="100.0" fill="#EA3C43" transform="matrix(1.00, 0.00, -0.00, -1.00, 473.0, 3.0)">U</text></g></svg>