<?xml version="1.0" encoding="UTF-8" standalone="no"?><svg xmlns="http://www.w3.org/2000/svg" xmlns:xlink="http://www.w3.org/1999/xlink" clip-rule="evenodd" stroke-miterlimit="4.00" viewBox="0 0 470 73"><desc>SVG generated by Keynote</desc><defs></defs><g transform="matrix(1.00, 0.00, -0.00, -1.00, 0.0, 73.0)"><text xml:space="preserve" font-family="GillSans-Light" font-size="100.0" fill="#525252" transform="matrix(1.00, 0.00, -0.00, -1.00, -6.0, 2.0)">B</text><text xml:space="preserve" font-family="GillSans-Light" font-size="100.0" fill="#525252" transform="matrix(1.00, 0.00, -0.00, -1.00, 47.1, 2.0)">Y</text><text xml:space="preserve" font-family="GillSans-Light" font-size="100.0" fill="#525252" transform="matrix(1.00, 0.00, -0.00, -1.00, 105.4, 2.0)"> </text><text xml:space="preserve" font-family="GillSans-Light" font-size="100.0" fill="#EA3C43" transform="matrix(1.00, 0.00, -0.00, -1.00, 133.2, 2.0)">B</text><text xml:space="preserve" font-family="GillSans-Light" font-size="100.0" fill="#EA3C43" transform="matrix(1.00, 0.00, -0.00, -1.00, 186.2, 2.0)">L</text><text xml:space="preserve" font-family="GillSans-Light" font-size="100.0" fill="#EA3C43" transform="matrix(1.00, 0.00, -0.00, -1.00, 233.2, 2.0)">A</text><text xml:space="preserve" font-family="GillSans-Light" font-size="100.0" fill="#EA3C43" transform="matrix(1.00, 0.00, -0.00, -1.00, 299.9, 2.0)">R</text><text xml:space="preserve" font-family="GillSans-Light" font-size="100.0" fill="#EA3C43" transform="matrix(1.00, 0.00, -0.00, -1.00, 357.2, 2.0)">R</text><text xml:space="preserve" font-family="GillSans-Light" font-size="100.0" fill="#EA3C43" transform="matrix(1.00, 0.00, -0.00, -1.00, 410.5, 2.0)">Y</text></g></svg>