<?xml version="1.0" encoding="UTF-8" standalone="no"?><svg xmlns="http://www.w3.org/2000/svg" xmlns:xlink="http://www.w3.org/1999/xlink" clip-rule="evenodd" stroke-miterlimit="10" viewBox="0 0 338 86"><desc>SVG generated by Keynote</desc><defs></defs><g transform="matrix(1.00, 0.00, -0.00, -1.00, 0.0, 86.0)"><text xml:space="preserve" font-family="GillSans-Light,Gill Sans" font-size="40.0" fill="#525252" transform="matrix(1.00, 0.00, -0.00, -1.00, 104.5, 57.2)">n</text><text xml:space="preserve" font-family="GillSans-Light,Gill Sans" font-size="40.0" fill="#525252" transform="matrix(1.00, 0.00, -0.00, -1.00, 124.1, 57.2)">.</text><text xml:space="preserve" font-family="GillSans-Light,Gill Sans" font-size="40.0" fill="#525252" transform="matrix(1.00, 0.00, -0.00, -1.00, 128.0, 57.2)"> </text><text xml:space="preserve" font-family="GillSans-Light,Gill Sans" font-size="40.0" fill="#525252" transform="matrix(1.00, 0.00, -0.00, -1.00, 139.1, 57.2)">m</text><text xml:space="preserve" font-family="GillSans-Light,Gill Sans" font-size="40.0" fill="#525252" transform="matrix(1.00, 0.00, -0.00, -1.00, 169.9, 57.2)">i</text><text xml:space="preserve" font-family="GillSans-Light,Gill Sans" font-size="40.0" fill="#525252" transform="matrix(1.00, 0.00, -0.00, -1.00, 177.4, 57.2)">r</text><text xml:space="preserve" font-family="GillSans-Light,Gill Sans" font-size="40.0" fill="#525252" transform="matrix(1.00, 0.00, -0.00, -1.00, 194.0, 57.2)">t</text><text xml:space="preserve" font-family="GillSans-Light,Gill Sans" font-size="40.0" fill="#525252" transform="matrix(1.00, 0.00, -0.00, -1.00, 206.0, 57.2)">h</text><text xml:space="preserve" font-family="GillSans-Light,Gill Sans" font-size="40.0" fill="#525252" transform="matrix(1.00, 0.00, -0.00, -1.00, 225.6, 57.2)">,</text><text xml:space="preserve" font-family="GillSans-Light,Gill Sans" font-size="40.0" fill="#525252" transform="matrix(1.00, 0.00, -0.00, -1.00, 229.5, 57.2)"> </text><text xml:space="preserve" font-family="GillSans-Light,Gill Sans" font-size="40.0" fill="#525252" transform="matrix(1.00, 0.00, -0.00, -1.00, -0.4, 11.2)">h</text><text xml:space="preserve" font-family="GillSans-Light,Gill Sans" font-size="40.0" fill="#525252" transform="matrix(1.00, 0.00, -0.00, -1.00, 19.3, 11.2)">a</text><text xml:space="preserve" font-family="GillSans-Light,Gill Sans" font-size="40.0" fill="#525252" transform="matrix(1.00, 0.00, -0.00, -1.00, 36.3, 11.2)">p</text><text xml:space="preserve" font-family="GillSans-Light,Gill Sans" font-size="40.0" fill="#525252" transform="matrix(1.00, 0.00, -0.00, -1.00, 56.7, 11.2)">p</text><text xml:space="preserve" font-family="GillSans-Light,Gill Sans" font-size="40.0" fill="#525252" transform="matrix(1.00, 0.00, -0.00, -1.00, 77.1, 11.2)">i</text><text xml:space="preserve" font-family="GillSans-Light,Gill Sans" font-size="40.0" fill="#525252" transform="matrix(1.00, 0.00, -0.00, -1.00, 84.6, 11.2)">n</text><text xml:space="preserve" font-family="GillSans-Light,Gill Sans" font-size="40.0" fill="#525252" transform="matrix(1.00, 0.00, -0.00, -1.00, 104.2, 11.2)">e</text><text xml:space="preserve" font-family="GillSans-Light,Gill Sans" font-size="40.0" fill="#525252" transform="matrix(1.00, 0.00, -0.00, -1.00, 123.4, 11.2)">s</text><text xml:space="preserve" font-family="GillSans-Light,Gill Sans" font-size="40.0" fill="#525252" transform="matrix(1.00, 0.00, -0.00, -1.00, 137.5, 11.2)">s</text><text xml:space="preserve" font-family="GillSans-Light,Gill Sans" font-size="40.0" fill="#525252" transform="matrix(1.00, 0.00, -0.00, -1.00, 151.7, 11.2)"> </text><text xml:space="preserve" font-family="GillSans-Light,Gill Sans" font-size="40.0" fill="#525252" transform="matrix(1.00, 0.00, -0.00, -1.00, 162.8, 11.2)">o</text><text xml:space="preserve" font-family="GillSans-Light,Gill Sans" font-size="40.0" fill="#525252" transform="matrix(1.00, 0.00, -0.00, -1.00, 184.5, 11.2)">r</text><text xml:space="preserve" font-family="GillSans-Light,Gill Sans" font-size="40.0" fill="#525252" transform="matrix(1.00, 0.00, -0.00, -1.00, 197.8, 11.2)"> </text><text xml:space="preserve" font-family="GillSans-Light,Gill Sans" font-size="40.0" fill="#525252" transform="matrix(1.00, 0.00, -0.00, -1.00, 208.9, 11.2)">l</text><text xml:space="preserve" font-family="GillSans-Light,Gill Sans" font-size="40.0" fill="#525252" transform="matrix(1.00, 0.00, -0.00, -1.00, 216.4, 11.2)">a</text><text xml:space="preserve" font-family="GillSans-Light,Gill Sans" font-size="40.0" fill="#525252" transform="matrix(1.00, 0.00, -0.00, -1.00, 233.5, 11.2)">u</text><text xml:space="preserve" font-family="GillSans-Light,Gill Sans" font-size="40.0" fill="#525252" transform="matrix(1.00, 0.00, -0.00, -1.00, 253.1, 11.2)">g</text><text xml:space="preserve" font-family="GillSans-Light,Gill Sans" font-size="40.0" fill="#525252" transform="matrix(1.00, 0.00, -0.00, -1.00, 270.2, 11.2)">h</text><text xml:space="preserve" font-family="GillSans-Light,Gill Sans" font-size="40.0" fill="#525252" transform="matrix(1.00, 0.00, -0.00, -1.00, 289.8, 11.2)">t</text><text xml:space="preserve" font-family="GillSans-Light,Gill Sans" font-size="40.0" fill="#525252" transform="matrix(1.00, 0.00, -0.00, -1.00, 301.9, 11.2)">e</text><text xml:space="preserve" font-family="GillSans-Light,Gill Sans" font-size="40.0" fill="#525252" transform="matrix(1.00, 0.00, -0.00, -1.00, 321.0, 11.2)">r</text></g></svg>