<?xml version="1.0" encoding="UTF-8" standalone="no"?><svg xmlns="http://www.w3.org/2000/svg" xmlns:xlink="http://www.w3.org/1999/xlink" clip-rule="evenodd" stroke-miterlimit="4.00" viewBox="0 0 873 90"><desc>SVG generated by Keynote</desc><defs></defs><g transform="matrix(1.00, 0.00, -0.00, -1.00, 0.0, 90.0)"><text xml:space="preserve" font-family="GillSans-Bold" font-weight="bold" font-size="100.0" fill="#FEFFFE" transform="matrix(1.00, 0.00, -0.00, -1.00, -18.0, 19.0)">1</text><text xml:space="preserve" font-family="GillSans-Bold" font-weight="bold" font-size="100.0" fill="#FEFFFE" transform="matrix(1.00, 0.00, -0.00, -1.00, 41.4, 19.0)">0</text><text xml:space="preserve" font-family="GillSans-Bold" font-weight="bold" font-size="100.0" fill="#FEFFFE" transform="matrix(1.00, 0.00, -0.00, -1.00, 100.9, 19.0)">0</text><text xml:space="preserve" font-family="GillSans-Bold" font-weight="bold" font-size="100.0" fill="#FEFFFE" transform="matrix(1.00, 0.00, -0.00, -1.00, 160.3, 19.0)">,</text><text xml:space="preserve" font-family="GillSans-Bold" font-weight="bold" font-size="100.0" fill="#FEFFFE" transform="matrix(1.00, 0.00, -0.00, -1.00, 190.4, 19.0)"> </text><text xml:space="preserve" font-family="GillSans-Bold" font-weight="bold" font-size="100.0" fill="#FEFFFE" transform="matrix(1.00, 0.00, -0.00, -1.00, 220.1, 19.0)">0</text><text xml:space="preserve" font-family="GillSans-Bold" font-weight="bold" font-size="100.0" fill="#FEFFFE" transform="matrix(1.00, 0.00, -0.00, -1.00, 279.5, 19.0)">0</text><text xml:space="preserve" font-family="GillSans-Bold" font-weight="bold" font-size="100.0" fill="#FEFFFE" transform="matrix(1.00, 0.00, -0.00, -1.00, 338.9, 19.0)">0</text><text xml:space="preserve" font-family="GillSans-Bold" font-weight="bold" font-size="100.0" fill="#FEFFFE" transform="matrix(1.00, 0.00, -0.00, -1.00, 398.3, 19.0)">,</text><text xml:space="preserve" font-family="GillSans-Bold" font-weight="bold" font-size="100.0" fill="#FEFFFE" transform="matrix(1.00, 0.00, -0.00, -1.00, 428.5, 19.0)"> </text><text xml:space="preserve" font-family="GillSans-Bold" font-weight="bold" font-size="100.0" fill="#FEFFFE" transform="matrix(1.00, 0.00, -0.00, -1.00, 458.1, 19.0)">0</text><text xml:space="preserve" font-family="GillSans-Bold" font-weight="bold" font-size="100.0" fill="#FEFFFE" transform="matrix(1.00, 0.00, -0.00, -1.00, 517.5, 19.0)">0</text><text xml:space="preserve" font-family="GillSans-Bold" font-weight="bold" font-size="100.0" fill="#FEFFFE" transform="matrix(1.00, 0.00, -0.00, -1.00, 576.9, 19.0)">0</text><text xml:space="preserve" font-family="GillSans-Bold" font-weight="bold" font-size="100.0" fill="#FEFFFE" transform="matrix(1.00, 0.00, -0.00, -1.00, 636.3, 19.0)">,</text><text xml:space="preserve" font-family="GillSans-Bold" font-weight="bold" font-size="100.0" fill="#FEFFFE" transform="matrix(1.00, 0.00, -0.00, -1.00, 666.5, 19.0)"> </text><text xml:space="preserve" font-family="GillSans-Bold" font-weight="bold" font-size="100.0" fill="#FEFFFE" transform="matrix(1.00, 0.00, -0.00, -1.00, 696.2, 19.0)">0</text><text xml:space="preserve" font-family="GillSans-Bold" font-weight="bold" font-size="100.0" fill="#FEFFFE" transform="matrix(1.00, 0.00, -0.00, -1.00, 755.6, 19.0)">0</text><text xml:space="preserve" font-family="GillSans-Bold" font-weight="bold" font-size="100.0" fill="#FEFFFE" transform="matrix(1.00, 0.00, -0.00, -1.00, 815.0, 19.0)">0</text></g></svg>