<?xml version="1.0" encoding="UTF-8" standalone="no"?><svg xmlns="http://www.w3.org/2000/svg" xmlns:xlink="http://www.w3.org/1999/xlink" clip-rule="evenodd" stroke-miterlimit="4.00" viewBox="0 0 1024 768"><desc>SVG generated by Keynote</desc><defs></defs><g transform="matrix(1.00, 0.00, -0.00, -1.00, 0.0, 768.0)"><g><clipPath id="clip-140"><path d="M 0.0 768.0 L 1024.0 768.0 L 1024.0 0.0 L 0.0 0.0 Z M 0.0 768.0 "></path></clipPath><g clip-path="url(#clip-140)"><image xlink:href="../../293415CD-D1BA-41BB-8703-BAEDA9FFCE27/assets/D3CB8578D364082F6943B53F933CCC32.jpeg" width="1024.00" height="768.00" transform="matrix(1.00, 0.00, -0.00, -1.00, 0.0, 768.0)"></image></g></g><path d="M 386.2 459.1 C 427.6 417.6 427.6 350.4 386.2 308.9 C 344.7 267.4 277.5 267.4 236.0 308.9 C 194.5 350.4 194.5 417.6 236.0 459.1 C 277.5 500.6 344.7 500.6 386.2 459.1 Z M 386.2 459.1 " fill="#7F8685"></path><g><clipPath id="clip-141"><path d="M 204.9 277.8 L 417.3 277.8 L 417.3 490.2 L 204.9 490.2 Z M 204.9 277.8 "></path></clipPath><g clip-path="url(#clip-141)"><text xml:space="preserve" font-family="GillSans-Light" font-size="36.0" fill="#FEFFFF" transform="matrix(1.00, 0.00, -0.00, -1.00, 259.0, 393.0)">k</text><text xml:space="preserve" font-family="GillSans-Light" font-size="36.0" fill="#FEFFFF" transform="matrix(1.00, 0.00, -0.00, -1.00, 274.4, 393.0)">-</text><text xml:space="preserve" font-family="GillSans-Light" font-size="36.0" fill="#FEFFFF" transform="matrix(1.00, 0.00, -0.00, -1.00, 285.6, 393.0)">m</text><text xml:space="preserve" font-family="GillSans-Light" font-size="36.0" fill="#FEFFFF" transform="matrix(1.00, 0.00, -0.00, -1.00, 313.4, 393.0)">e</text><text xml:space="preserve" font-family="GillSans-Light" font-size="36.0" fill="#FEFFFF" transform="matrix(1.00, 0.00, -0.00, -1.00, 330.6, 393.0)">a</text><text xml:space="preserve" font-family="GillSans-Light" font-size="36.0" fill="#FEFFFF" transform="matrix(1.00, 0.00, -0.00, -1.00, 346.0, 393.0)">n</text><text xml:space="preserve" font-family="GillSans-Light" font-size="36.0" fill="#FEFFFF" transform="matrix(1.00, 0.00, -0.00, -1.00, 363.6, 393.0)"> </text><text xml:space="preserve" font-family="GillSans-Light" font-size="36.0" fill="#FEFFFF" transform="matrix(1.00, 0.00, -0.00, -1.00, 245.0, 352.0)">c</text><text xml:space="preserve" font-family="GillSans-Light" font-size="36.0" fill="#FEFFFF" transform="matrix(1.00, 0.00, -0.00, -1.00, 260.0, 352.0)">l</text><text xml:space="preserve" font-family="GillSans-Light" font-size="36.0" fill="#FEFFFF" transform="matrix(1.00, 0.00, -0.00, -1.00, 266.8, 352.0)">u</text><text xml:space="preserve" font-family="GillSans-Light" font-size="36.0" fill="#FEFFFF" transform="matrix(1.00, 0.00, -0.00, -1.00, 284.4, 352.0)">s</text><text xml:space="preserve" font-family="GillSans-Light" font-size="36.0" fill="#FEFFFF" transform="matrix(1.00, 0.00, -0.00, -1.00, 297.2, 352.0)">t</text><text xml:space="preserve" font-family="GillSans-Light" font-size="36.0" fill="#FEFFFF" transform="matrix(1.00, 0.00, -0.00, -1.00, 308.0, 352.0)">e</text><text xml:space="preserve" font-family="GillSans-Light" font-size="36.0" fill="#FEFFFF" transform="matrix(1.00, 0.00, -0.00, -1.00, 325.3, 352.0)">r</text><text xml:space="preserve" font-family="GillSans-Light" font-size="36.0" fill="#FEFFFF" transform="matrix(1.00, 0.00, -0.00, -1.00, 338.2, 352.0)">i</text><text xml:space="preserve" font-family="GillSans-Light" font-size="36.0" fill="#FEFFFF" transform="matrix(1.00, 0.00, -0.00, -1.00, 344.9, 352.0)">n</text><text xml:space="preserve" font-family="GillSans-Light" font-size="36.0" fill="#FEFFFF" transform="matrix(1.00, 0.00, -0.00, -1.00, 362.6, 352.0)">g</text></g></g><path d="M 0.0 0.0 L 142.1 0.0 L 143.1 0.0 " fill="none" stroke="#595E5D" stroke-width="2.00" transform="matrix(1.00, 0.00, 0.00, -1.00, 436.2, 384.0)"></path><path d="M 578.2 379.2 L 587.8 384.0 L 578.2 388.8 Z M 578.2 379.2 " fill="#595E5D"></path><path d="M 606.7 490.2 L 819.1 490.2 L 819.1 277.8 L 606.7 277.8 Z M 606.7 490.2 " fill="#7F8685"></path><g><clipPath id="clip-142"><path d="M 600.5 277.8 L 825.4 277.8 L 825.4 490.2 L 600.5 490.2 Z M 600.5 277.8 "></path></clipPath><g clip-path="url(#clip-142)"><text xml:space="preserve" font-family="GillSans-Light" font-size="36.0" fill="#FEFFFF" transform="matrix(1.00, 0.00, -0.00, -1.00, 669.0, 393.0)">n</text><text xml:space="preserve" font-family="GillSans-Light" font-size="36.0" fill="#FEFFFF" transform="matrix(1.00, 0.00, -0.00, -1.00, 686.7, 393.0)">e</text><text xml:space="preserve" font-family="GillSans-Light" font-size="36.0" fill="#FEFFFF" transform="matrix(1.00, 0.00, -0.00, -1.00, 703.9, 393.0)">u</text><text xml:space="preserve" font-family="GillSans-Light" font-size="36.0" fill="#FEFFFF" transform="matrix(1.00, 0.00, -0.00, -1.00, 721.6, 393.0)">r</text><text xml:space="preserve" font-family="GillSans-Light" font-size="36.0" fill="#FEFFFF" transform="matrix(1.00, 0.00, -0.00, -1.00, 734.4, 393.0)">a</text><text xml:space="preserve" font-family="GillSans-Light" font-size="36.0" fill="#FEFFFF" transform="matrix(1.00, 0.00, -0.00, -1.00, 749.8, 393.0)">l</text><text xml:space="preserve" font-family="GillSans-Light" font-size="36.0" fill="#FEFFFF" transform="matrix(1.00, 0.00, -0.00, -1.00, 756.6, 393.0)"> </text><text xml:space="preserve" font-family="GillSans-Light" font-size="36.0" fill="#FEFFFF" transform="matrix(1.00, 0.00, -0.00, -1.00, 653.0, 352.0)">n</text><text xml:space="preserve" font-family="GillSans-Light" font-size="36.0" fill="#FEFFFF" transform="matrix(1.00, 0.00, -0.00, -1.00, 670.7, 352.0)">e</text><text xml:space="preserve" font-family="GillSans-Light" font-size="36.0" fill="#FEFFFF" transform="matrix(1.00, 0.00, -0.00, -1.00, 687.9, 352.0)">t</text><text xml:space="preserve" font-family="GillSans-Light" font-size="36.0" fill="#FEFFFF" transform="matrix(1.00, 0.00, -0.00, -1.00, 698.8, 352.0)">w</text><text xml:space="preserve" font-family="GillSans-Light" font-size="36.0" fill="#FEFFFF" transform="matrix(1.00, 0.00, -0.00, -1.00, 723.7, 352.0)">o</text><text xml:space="preserve" font-family="GillSans-Light" font-size="36.0" fill="#FEFFFF" transform="matrix(1.00, 0.00, -0.00, -1.00, 743.2, 352.0)">r</text><text xml:space="preserve" font-family="GillSans-Light" font-size="36.0" fill="#FEFFFF" transform="matrix(1.00, 0.00, -0.00, -1.00, 756.6, 352.0)">k</text></g></g><image xlink:href="../../7694F8CF-3052-400A-BB01-5A338363C105/assets/5C65DFFAA0A396FFF8F1DA17143A7CB4.png" width="331.00" height="100.00" transform="matrix(1.00, 0.00, -0.00, -1.00, 347.0, 715.0)"></image><path d="M 0.0 0.0 L 170.6 0.0 L 171.6 0.0 " fill="none" stroke="#595E5D" stroke-width="2.00" transform="matrix(-0.71, -0.71, -0.71, 0.71, 509.0, 603.8)"></path><path d="M 385.0 486.6 L 381.6 476.4 L 391.8 479.8 Z M 385.0 486.6 " fill="#595E5D"></path><path d="M 0.0 0.0 L 136.9 0.0 L 137.9 0.0 " fill="none" stroke="#595E5D" stroke-width="2.00" transform="matrix(-0.71, -0.71, -0.71, 0.71, 663.6, 259.5)"></path><path d="M 563.4 166.1 L 560.0 155.9 L 570.2 159.3 Z M 563.4 166.1 " fill="#595E5D"></path><text xml:space="preserve" font-family="GillSans-Light" font-size="100.0" fill="#525252" transform="matrix(1.00, 0.00, -0.00, -1.00, 403.0, 59.0)">6</text><text xml:space="preserve" font-family="GillSans-Light" font-size="100.0" fill="#525252" transform="matrix(1.00, 0.00, -0.00, -1.00, 453.0, 59.0)">3</text><text xml:space="preserve" font-family="GillSans-Light" font-size="100.0" fill="#525252" transform="matrix(1.00, 0.00, -0.00, -1.00, 503.0, 59.0)">.</text><text xml:space="preserve" font-family="GillSans-Light" font-size="100.0" fill="#525252" transform="matrix(1.00, 0.00, -0.00, -1.00, 520.7, 59.0)">0</text><text xml:space="preserve" font-family="GillSans-Light" font-size="100.0" fill="#525252" transform="matrix(1.00, 0.00, -0.00, -1.00, 570.7, 59.0)">8</text><g><clipPath id="clip-143"><path d="M 448.0 434.0 L 576.0 434.0 L 576.0 388.0 L 448.0 388.0 Z M 448.2 434.4 "></path></clipPath><g clip-path="url(#clip-143)"><image xlink:href="../../6464DC59-38B2-4775-A469-0C9ED0163848/assets/A98EF4030412A6A08DF89542F1C84DDC.png" width="174.00" height="130.00" transform="matrix(1.00, 0.00, -0.00, -1.00, 425.0, 476.0)"></image></g></g><text xml:space="preserve" font-family="GillSans-Light" font-size="36.0" fill="#525252" transform="matrix(1.00, 0.00, -0.00, -1.00, 323.0, 529.0)">p</text><text xml:space="preserve" font-family="GillSans-Light" font-size="36.0" fill="#525252" transform="matrix(1.00, 0.00, -0.00, -1.00, 341.3, 529.0)">i</text><text xml:space="preserve" font-family="GillSans-Light" font-size="36.0" fill="#525252" transform="matrix(1.00, 0.00, -0.00, -1.00, 348.1, 529.0)">x</text><text xml:space="preserve" font-family="GillSans-Light" font-size="36.0" fill="#525252" transform="matrix(1.00, 0.00, -0.00, -1.00, 364.6, 529.0)">e</text><text xml:space="preserve" font-family="GillSans-Light" font-size="36.0" fill="#525252" transform="matrix(1.00, 0.00, -0.00, -1.00, 381.9, 529.0)">l</text><text xml:space="preserve" font-family="GillSans-Light" font-size="36.0" fill="#525252" transform="matrix(1.00, 0.00, -0.00, -1.00, 388.6, 529.0)">s</text><text xml:space="preserve" font-family="GillSans-Light" font-size="36.0" fill="#525252" transform="matrix(1.00, 0.00, -0.00, -1.00, 641.0, 182.0)">t</text><text xml:space="preserve" font-family="GillSans-Light" font-size="36.0" fill="#525252" transform="matrix(1.00, 0.00, -0.00, -1.00, 651.9, 182.0)">e</text><text xml:space="preserve" font-family="GillSans-Light" font-size="36.0" fill="#525252" transform="matrix(1.00, 0.00, -0.00, -1.00, 669.1, 182.0)">x</text><text xml:space="preserve" font-family="GillSans-Light" font-size="36.0" fill="#525252" transform="matrix(1.00, 0.00, -0.00, -1.00, 686.3, 182.0)">t</text></g></svg>