<?xml version="1.0" encoding="UTF-8" standalone="no"?><svg xmlns="http://www.w3.org/2000/svg" xmlns:xlink="http://www.w3.org/1999/xlink" clip-rule="evenodd" stroke-miterlimit="10" viewBox="0 0 1024 768"><desc>SVG generated by Keynote</desc><defs></defs><g transform="matrix(1.00, 0.00, -0.00, -1.00, 0.0, 768.0)"><g><clipPath id="clip0x7f836b8ac540"><path d="M 0.0 768.0 L 1024.0 768.0 L 1024.0 0.0 L 0.0 0.0 Z M 0.0 768.0 "></path></clipPath><g clip-path="url(#clip0x7f836b8ac540)"><image xlink:href="../../ABD58C27-F6CF-40B3-91FF-81F18B874235/assets/574DCE55A4CF432400CBDDDE1DFDFC9B.jpeg" width="2048.00" height="1536.00" transform="matrix(0.50, 0.00, -0.00, -0.50, 0.0, 768.0)"></image></g></g><text xml:space="preserve" font-family="GillSans-Light,Gill Sans" font-size="40.0" fill="#525252" transform="matrix(1.00, 0.00, -0.00, -1.00, 254.6, 370.0)">T</text><text xml:space="preserve" font-family="GillSans-Light,Gill Sans" font-size="40.0" fill="#525252" transform="matrix(1.00, 0.00, -0.00, -1.00, 277.6, 370.0)">H</text><text xml:space="preserve" font-family="GillSans-Light,Gill Sans" font-size="40.0" fill="#525252" transform="matrix(1.00, 0.00, -0.00, -1.00, 306.3, 370.0)">A</text><text xml:space="preserve" font-family="GillSans-Light,Gill Sans" font-size="40.0" fill="#525252" transform="matrix(1.00, 0.00, -0.00, -1.00, 333.0, 370.0)">N</text><text xml:space="preserve" font-family="GillSans-Light,Gill Sans" font-size="40.0" fill="#525252" transform="matrix(1.00, 0.00, -0.00, -1.00, 363.9, 370.0)">K</text><text xml:space="preserve" font-family="GillSans-Light,Gill Sans" font-size="40.0" fill="#525252" transform="matrix(1.00, 0.00, -0.00, -1.00, 385.1, 370.0)"> </text><text xml:space="preserve" font-family="GillSans-Light,Gill Sans" font-size="40.0" fill="#525252" transform="matrix(1.00, 0.00, -0.00, -1.00, 390.2, 370.0)">Y</text><text xml:space="preserve" font-family="GillSans-Light,Gill Sans" font-size="40.0" fill="#525252" transform="matrix(1.00, 0.00, -0.00, -1.00, 413.5, 370.0)">'</text><text xml:space="preserve" font-family="GillSans-Light,Gill Sans" font-size="40.0" fill="#525252" transform="matrix(1.00, 0.00, -0.00, -1.00, 422.4, 370.0)">A</text><text xml:space="preserve" font-family="GillSans-Light,Gill Sans" font-size="40.0" fill="#525252" transform="matrix(1.00, 0.00, -0.00, -1.00, 449.1, 370.0)">L</text><text xml:space="preserve" font-family="GillSans-Light,Gill Sans" font-size="40.0" fill="#525252" transform="matrix(1.00, 0.00, -0.00, -1.00, 467.9, 370.0)">L</text><text xml:space="preserve" font-family="GillSans-Light,Gill Sans" font-size="40.0" fill="#525252" transform="matrix(1.00, 0.00, -0.00, -1.00, 486.6, 370.0)"> </text><text xml:space="preserve" font-family="GillSans-Light,Gill Sans" font-size="40.0" fill="#525252" transform="matrix(1.00, 0.00, -0.00, -1.00, 497.7, 370.0)">F</text><text xml:space="preserve" font-family="GillSans-Light,Gill Sans" font-size="40.0" fill="#525252" transform="matrix(1.00, 0.00, -0.00, -1.00, 515.3, 370.0)">O</text><text xml:space="preserve" font-family="GillSans-Light,Gill Sans" font-size="40.0" fill="#525252" transform="matrix(1.00, 0.00, -0.00, -1.00, 548.2, 370.0)">R</text><text xml:space="preserve" font-family="GillSans-Light,Gill Sans" font-size="40.0" fill="#525252" transform="matrix(1.00, 0.00, -0.00, -1.00, 571.1, 370.0)"> </text><text xml:space="preserve" font-family="GillSans-Light,Gill Sans" font-size="40.0" fill="#525252" transform="matrix(1.00, 0.00, -0.00, -1.00, 582.2, 370.0)">L</text><text xml:space="preserve" font-family="GillSans-Light,Gill Sans" font-size="40.0" fill="#525252" transform="matrix(1.00, 0.00, -0.00, -1.00, 601.0, 370.0)">I</text><text xml:space="preserve" font-family="GillSans-Light,Gill Sans" font-size="40.0" fill="#525252" transform="matrix(1.00, 0.00, -0.00, -1.00, 609.3, 370.0)">S</text><text xml:space="preserve" font-family="GillSans-Light,Gill Sans" font-size="40.0" fill="#525252" transform="matrix(1.00, 0.00, -0.00, -1.00, 628.1, 370.0)">T</text><text xml:space="preserve" font-family="GillSans-Light,Gill Sans" font-size="40.0" fill="#525252" transform="matrix(1.00, 0.00, -0.00, -1.00, 651.1, 370.0)">E</text><text xml:space="preserve" font-family="GillSans-Light,Gill Sans" font-size="40.0" fill="#525252" transform="matrix(1.00, 0.00, -0.00, -1.00, 670.7, 370.0)">N</text><text xml:space="preserve" font-family="GillSans-Light,Gill Sans" font-size="40.0" fill="#525252" transform="matrix(1.00, 0.00, -0.00, -1.00, 701.5, 370.0)">I</text><text xml:space="preserve" font-family="GillSans-Light,Gill Sans" font-size="40.0" fill="#525252" transform="matrix(1.00, 0.00, -0.00, -1.00, 709.8, 370.0)">N</text><text xml:space="preserve" font-family="GillSans-Light,Gill Sans" font-size="40.0" fill="#525252" transform="matrix(1.00, 0.00, -0.00, -1.00, 740.7, 370.0)">G</text></g></svg>