<?xml version="1.0" encoding="UTF-8" standalone="no"?><svg xmlns="http://www.w3.org/2000/svg" xmlns:xlink="http://www.w3.org/1999/xlink" clip-rule="evenodd" stroke-miterlimit="4.00" viewBox="0 0 337 19"><desc>SVG generated by Keynote</desc><defs></defs><g transform="matrix(1.00, 0.00, -0.00, -1.00, 0.0, 19.0)"><text xml:space="preserve" font-family="GillSans-Light" font-size="15.0" fill="#525252" transform="matrix(1.00, 0.00, -0.00, -1.00, 2.0, 5.0)">h</text><text xml:space="preserve" font-family="GillSans-Light" font-size="15.0" fill="#525252" transform="matrix(1.00, 0.00, -0.00, -1.00, 9.4, 5.0)">t</text><text xml:space="preserve" font-family="GillSans-Light" font-size="15.0" fill="#525252" transform="matrix(1.00, 0.00, -0.00, -1.00, 13.9, 5.0)">t</text><text xml:space="preserve" font-family="GillSans-Light" font-size="15.0" fill="#525252" transform="matrix(1.00, 0.00, -0.00, -1.00, 18.4, 5.0)">p</text><text xml:space="preserve" font-family="GillSans-Light" font-size="15.0" fill="#525252" transform="matrix(1.00, 0.00, -0.00, -1.00, 26.0, 5.0)">:</text><text xml:space="preserve" font-family="GillSans-Light" font-size="15.0" fill="#525252" transform="matrix(1.00, 0.00, -0.00, -1.00, 28.7, 5.0)">/</text><text xml:space="preserve" font-family="GillSans-Light" font-size="15.0" fill="#525252" transform="matrix(1.00, 0.00, -0.00, -1.00, 32.9, 5.0)">/</text><text xml:space="preserve" font-family="GillSans-Light" font-size="15.0" fill="#525252" transform="matrix(1.00, 0.00, -0.00, -1.00, 37.1, 5.0)">c</text><text xml:space="preserve" font-family="GillSans-Light" font-size="15.0" fill="#525252" transform="matrix(1.00, 0.00, -0.00, -1.00, 43.4, 5.0)">i</text><text xml:space="preserve" font-family="GillSans-Light" font-size="15.0" fill="#525252" transform="matrix(1.00, 0.00, -0.00, -1.00, 46.2, 5.0)">n</text><text xml:space="preserve" font-family="GillSans-Light" font-size="15.0" fill="#525252" transform="matrix(1.00, 0.00, -0.00, -1.00, 53.5, 5.0)">p</text><text xml:space="preserve" font-family="GillSans-Light" font-size="15.0" fill="#525252" transform="matrix(1.00, 0.00, -0.00, -1.00, 61.2, 5.0)">l</text><text xml:space="preserve" font-family="GillSans-Light" font-size="15.0" fill="#525252" transform="matrix(1.00, 0.00, -0.00, -1.00, 64.0, 5.0)">a</text><text xml:space="preserve" font-family="GillSans-Light" font-size="15.0" fill="#525252" transform="matrix(1.00, 0.00, -0.00, -1.00, 70.4, 5.0)">.</text><text xml:space="preserve" font-family="GillSans-Light" font-size="15.0" fill="#525252" transform="matrix(1.00, 0.00, -0.00, -1.00, 73.1, 5.0)">o</text><text xml:space="preserve" font-family="GillSans-Light" font-size="15.0" fill="#525252" transform="matrix(1.00, 0.00, -0.00, -1.00, 81.2, 5.0)">r</text><text xml:space="preserve" font-family="GillSans-Light" font-size="15.0" fill="#525252" transform="matrix(1.00, 0.00, -0.00, -1.00, 86.6, 5.0)">g</text><text xml:space="preserve" font-family="GillSans-Light" font-size="15.0" fill="#525252" transform="matrix(1.00, 0.00, -0.00, -1.00, 93.0, 5.0)">/</text><text xml:space="preserve" font-family="GillSans-Light" font-size="15.0" fill="#525252" transform="matrix(1.00, 0.00, -0.00, -1.00, 97.2, 5.0)">w</text><text xml:space="preserve" font-family="GillSans-Light" font-size="15.0" fill="#525252" transform="matrix(1.00, 0.00, -0.00, -1.00, 107.8, 5.0)">p</text><text xml:space="preserve" font-family="GillSans-Light" font-size="15.0" fill="#525252" transform="matrix(1.00, 0.00, -0.00, -1.00, 115.4, 5.0)">-</text><text xml:space="preserve" font-family="GillSans-Light" font-size="15.0" fill="#525252" transform="matrix(1.00, 0.00, -0.00, -1.00, 120.1, 5.0)">c</text><text xml:space="preserve" font-family="GillSans-Light" font-size="15.0" fill="#525252" transform="matrix(1.00, 0.00, -0.00, -1.00, 126.4, 5.0)">o</text><text xml:space="preserve" font-family="GillSans-Light" font-size="15.0" fill="#525252" transform="matrix(1.00, 0.00, -0.00, -1.00, 134.5, 5.0)">n</text><text xml:space="preserve" font-family="GillSans-Light" font-size="15.0" fill="#525252" transform="matrix(1.00, 0.00, -0.00, -1.00, 141.9, 5.0)">t</text><text xml:space="preserve" font-family="GillSans-Light" font-size="15.0" fill="#525252" transform="matrix(1.00, 0.00, -0.00, -1.00, 146.4, 5.0)">e</text><text xml:space="preserve" font-family="GillSans-Light" font-size="15.0" fill="#525252" transform="matrix(1.00, 0.00, -0.00, -1.00, 153.6, 5.0)">n</text><text xml:space="preserve" font-family="GillSans-Light" font-size="15.0" fill="#525252" transform="matrix(1.00, 0.00, -0.00, -1.00, 160.9, 5.0)">t</text><text xml:space="preserve" font-family="GillSans-Light" font-size="15.0" fill="#525252" transform="matrix(1.00, 0.00, -0.00, -1.00, 165.4, 5.0)">/</text><text xml:space="preserve" font-family="GillSans-Light" font-size="15.0" fill="#525252" transform="matrix(1.00, 0.00, -0.00, -1.00, 169.7, 5.0)">u</text><text xml:space="preserve" font-family="GillSans-Light" font-size="15.0" fill="#525252" transform="matrix(1.00, 0.00, -0.00, -1.00, 177.0, 5.0)">p</text><text xml:space="preserve" font-family="GillSans-Light" font-size="15.0" fill="#525252" transform="matrix(1.00, 0.00, -0.00, -1.00, 184.7, 5.0)">l</text><text xml:space="preserve" font-family="GillSans-Light" font-size="15.0" fill="#525252" transform="matrix(1.00, 0.00, -0.00, -1.00, 187.5, 5.0)">o</text><text xml:space="preserve" font-family="GillSans-Light" font-size="15.0" fill="#525252" transform="matrix(1.00, 0.00, -0.00, -1.00, 195.6, 5.0)">a</text><text xml:space="preserve" font-family="GillSans-Light" font-size="15.0" fill="#525252" transform="matrix(1.00, 0.00, -0.00, -1.00, 202.0, 5.0)">d</text><text xml:space="preserve" font-family="GillSans-Light" font-size="15.0" fill="#525252" transform="matrix(1.00, 0.00, -0.00, -1.00, 209.6, 5.0)">s</text><text xml:space="preserve" font-family="GillSans-Light" font-size="15.0" fill="#525252" transform="matrix(1.00, 0.00, -0.00, -1.00, 215.0, 5.0)">/</text><text xml:space="preserve" font-family="GillSans-Light" font-size="15.0" fill="#525252" transform="matrix(1.00, 0.00, -0.00, -1.00, 219.2, 5.0)">2</text><text xml:space="preserve" font-family="GillSans-Light" font-size="15.0" fill="#525252" transform="matrix(1.00, 0.00, -0.00, -1.00, 226.7, 5.0)">0</text><text xml:space="preserve" font-family="GillSans-Light" font-size="15.0" fill="#525252" transform="matrix(1.00, 0.00, -0.00, -1.00, 234.2, 5.0)">1</text><text xml:space="preserve" font-family="GillSans-Light" font-size="15.0" fill="#525252" transform="matrix(1.00, 0.00, -0.00, -1.00, 241.7, 5.0)">5</text><text xml:space="preserve" font-family="GillSans-Light" font-size="15.0" fill="#525252" transform="matrix(1.00, 0.00, -0.00, -1.00, 249.2, 5.0)">/</text><text xml:space="preserve" font-family="GillSans-Light" font-size="15.0" fill="#525252" transform="matrix(1.00, 0.00, -0.00, -1.00, 253.4, 5.0)">0</text><text xml:space="preserve" font-family="GillSans-Light" font-size="15.0" fill="#525252" transform="matrix(1.00, 0.00, -0.00, -1.00, 260.9, 5.0)">2</text><text xml:space="preserve" font-family="GillSans-Light" font-size="15.0" fill="#525252" transform="matrix(1.00, 0.00, -0.00, -1.00, 268.4, 5.0)">/</text><text xml:space="preserve" font-family="GillSans-Light" font-size="15.0" fill="#525252" transform="matrix(1.00, 0.00, -0.00, -1.00, 272.6, 5.0)">n</text><text xml:space="preserve" font-family="GillSans-Light" font-size="15.0" fill="#525252" transform="matrix(1.00, 0.00, -0.00, -1.00, 279.9, 5.0)">e</text><text xml:space="preserve" font-family="GillSans-Light" font-size="15.0" fill="#525252" transform="matrix(1.00, 0.00, -0.00, -1.00, 287.1, 5.0)">u</text><text xml:space="preserve" font-family="GillSans-Light" font-size="15.0" fill="#525252" transform="matrix(1.00, 0.00, -0.00, -1.00, 294.5, 5.0)">r</text><text xml:space="preserve" font-family="GillSans-Light" font-size="15.0" fill="#525252" transform="matrix(1.00, 0.00, -0.00, -1.00, 299.5, 5.0)">o</text><text xml:space="preserve" font-family="GillSans-Light" font-size="15.0" fill="#525252" transform="matrix(1.00, 0.00, -0.00, -1.00, 307.6, 5.0)">n</text><text xml:space="preserve" font-family="GillSans-Light" font-size="15.0" fill="#525252" transform="matrix(1.00, 0.00, -0.00, -1.00, 315.0, 5.0)">.</text><text xml:space="preserve" font-family="GillSans-Light" font-size="15.0" fill="#525252" transform="matrix(1.00, 0.00, -0.00, -1.00, 317.6, 5.0)">j</text><text xml:space="preserve" font-family="GillSans-Light" font-size="15.0" fill="#525252" transform="matrix(1.00, 0.00, -0.00, -1.00, 320.4, 5.0)">p</text><text xml:space="preserve" font-family="GillSans-Light" font-size="15.0" fill="#525252" transform="matrix(1.00, 0.00, -0.00, -1.00, 328.1, 5.0)">g</text><g><clipPath id="clip-21"><path d="M 0.5 2.3 L 334.1 2.3 L 334.1 5.1 L 0.5 5.1 Z M 0.5 2.3 "></path></clipPath><g clip-path="url(#clip-21)"><path d="M 4.0 18.6 L 336.5 18.6 " fill="none" stroke="#525252" stroke-width="0.75" stroke-miterlimit="0.00" transform="matrix(1.00, 0.00, 0.00, -1.00, -2.5, 22.3)"></path></g></g></g></svg>