<?xml version="1.0" encoding="UTF-8" standalone="no"?><svg xmlns="http://www.w3.org/2000/svg" xmlns:xlink="http://www.w3.org/1999/xlink" clip-rule="evenodd" stroke-miterlimit="10" viewBox="0 0 1020 608"><desc>SVG generated by Keynote</desc><defs></defs><g transform="matrix(1.00, 0.00, -0.00, -1.00, 0.0, 608.0)"><image xlink:href="707F62C9F89D9A9012F4EE19CA9AD5BE.png" width="650.00" height="150.00" transform="matrix(1.00, 0.00, -0.00, -1.00, 185.1, 158.7)" opacity="0.75"></image><g><clipPath id="clip0x6000010ba3a0"><path d="M 122.0 523.0 L 898.0 523.0 L 898.0 85.0 L 122.0 85.0 Z M 121.8 523.0 "></path></clipPath><g clip-path="url(#clip0x6000010ba3a0)"><g><clipPath id="clip0x6000016ab7c0"><path d="M 510.0 515.6 C 501.1 515.6 492.2 515.3 487.6 514.6 C 471.2 512.2 460.8 510.5 458.0 509.7 C 451.8 507.8 436.3 502.7 434.4 501.9 C 421.3 496.3 409.8 490.5 403.5 486.2 C 402.2 485.3 400.4 484.2 399.6 483.9 C 389.9 479.6 358.7 450.3 347.0 434.6 C 337.6 422.0 328.0 405.2 321.4 389.9 C 318.6 383.5 312.3 363.9 312.3 361.6 C 312.3 360.5 311.9 359.4 311.4 359.1 C 310.9 358.8 310.3 356.9 310.0 354.8 C 309.7 352.8 308.9 348.3 308.4 344.8 C 304.0 318.2 304.0 287.9 308.3 264.2 C 308.8 261.3 309.6 256.7 309.9 254.1 C 310.3 251.6 311.0 249.2 311.5 248.9 C 311.9 248.6 312.3 247.5 312.3 246.4 C 312.3 244.3 317.5 227.6 319.9 222.0 C 323.4 213.8 332.6 195.4 336.2 189.6 C 354.7 158.8 387.5 128.6 418.5 113.7 C 430.7 107.8 436.7 105.1 437.9 105.1 C 438.4 105.1 439.7 104.7 440.6 104.2 C 443.6 102.6 453.8 99.5 461.4 97.9 C 477.2 94.7 479.4 94.3 484.3 94.3 C 487.1 94.3 490.0 93.9 490.9 93.3 C 492.4 92.3 524.3 92.6 533.5 93.8 C 552.4 96.0 573.1 100.7 579.4 104.2 C 580.3 104.7 581.5 105.1 582.1 105.1 C 583.3 105.1 589.3 107.8 601.5 113.7 C 632.5 128.6 665.2 158.8 683.8 189.6 C 687.3 195.4 696.5 213.8 700.1 222.0 C 702.5 227.6 707.7 244.3 707.7 246.4 C 707.7 247.5 708.1 248.6 708.5 248.9 C 709.0 249.2 709.7 251.6 710.1 254.1 C 710.4 256.7 711.2 261.3 711.7 264.2 C 717.1 293.9 715.5 334.5 707.9 362.4 C 700.7 388.8 688.9 413.1 673.0 434.6 C 661.3 450.3 630.0 479.6 620.4 483.9 C 619.5 484.2 617.8 485.3 616.4 486.2 C 610.1 490.5 598.7 496.3 585.5 501.9 C 583.7 502.7 568.2 507.8 562.0 509.7 C 559.2 510.5 548.8 512.2 532.4 514.6 C 527.8 515.3 518.9 515.6 510.0 515.6 Z M 510.0 515.6 "></path></clipPath><g clip-path="url(#clip0x6000016ab7c0)"><image xlink:href="65A0EE253603E33BCB2CF1FD3599FCE5.jpeg" width="1280.00" height="1714.00" transform="matrix(0.40, 0.00, -0.00, -0.40, 251.0, 650.0)"></image></g></g></g></g></g></svg>